<?xml version="1.0" encoding="utf-8"?>
<!-- Generator: Adobe Illustrator 16.0.0, SVG Export Plug-In . SVG Version: 6.00 Build 0)  -->
<!DOCTYPE svg PUBLIC "-//W3C//DTD SVG 1.1//EN" "http://www.w3.org/Graphics/SVG/1.1/DTD/svg11.dtd">
<svg version="1.1" id="Layer_1" xmlns="http://www.w3.org/2000/svg" xmlns:xlink="http://www.w3.org/1999/xlink" x="0px" y="0px"
	 width="359px" height="444px" viewBox="0 0 359 444" enable-background="new 0 0 359 444" xml:space="preserve">
<g>
	<g>
		<path fill-rule="evenodd" clip-rule="evenodd" fill="#FAEFC2" d="M360,81c0,95,0,190,0,285c-0.668,2.178-1.494,4.32-1.979,6.539
			c-6.778,31.056-24.498,53.202-53.933,65.438c-7.392,3.073-15.376,4.72-23.089,7.022c-67.334,0-134.667,0-202,0
			c-0.402-0.281-0.778-0.758-1.211-0.816c-15.355-2.077-28.767-8.431-41.153-17.648c-18.509-13.774-29.077-32.351-34.41-54.347
			C1.731,370.146,1.405,368.063,1,366c0-95.333,0-190.667,0-286c0.276-0.407,0.752-0.793,0.798-1.225
			c1.693-15.806,8.261-29.465,17.663-42.12C32.092,19.652,48.805,9.134,69.065,3.817C72.706,2.862,76.354,1.938,80,1
			c67,0,134,0,201,0c2.174,0.667,4.313,1.485,6.525,1.979c32.363,7.221,54.94,25.907,66.553,57.166
			C356.587,66.898,358.054,74.038,360,81z"/>
		<path fill-rule="evenodd" clip-rule="evenodd" fill="#FEFEFE" d="M360,81c-1.946-6.962-3.413-14.102-5.922-20.854
			C342.466,28.887,319.889,10.2,287.525,2.979C285.313,2.485,283.174,1.667,281,1c26.334,0,52.666,0,79,0
			C360,27.667,360,54.333,360,81z"/>
		<path fill-rule="evenodd" clip-rule="evenodd" fill="#FEFEFE" d="M281,445c7.713-2.303,15.697-3.949,23.089-7.022
			c29.435-12.236,47.154-34.383,53.933-65.438c0.484-2.219,1.311-4.361,1.979-6.539c0,26.333,0,52.667,0,79
			C333.666,445,307.334,445,281,445z"/>
		<path fill-rule="evenodd" clip-rule="evenodd" fill="#FEFEFE" d="M80,1c-3.646,0.938-7.294,1.862-10.935,2.817
			c-20.26,5.316-36.973,15.835-49.604,32.838C10.06,49.311,3.492,62.97,1.798,78.775C1.752,79.207,1.276,79.593,1,80
			C1,53.75,1,27.499,1,1C27.333,1,53.667,1,80,1z"/>
		<path fill-rule="evenodd" clip-rule="evenodd" fill="#FEFEFE" d="M1,366c0.405,2.063,0.731,4.146,1.226,6.188
			c5.333,21.996,15.901,40.572,34.41,54.347c12.386,9.218,25.798,15.571,41.153,17.648c0.433,0.059,0.809,0.535,1.211,0.816
			c-25.917,0-51.835,0-78,0C1,418.667,1,392.334,1,366z"/>
	</g>
</g>
</svg>
