<?xml version="1.0" encoding="utf-8"?>
<!-- Generator: Adobe Illustrator 16.0.0, SVG Export Plug-In . SVG Version: 6.00 Build 0)  -->
<!DOCTYPE svg PUBLIC "-//W3C//DTD SVG 1.1//EN" "http://www.w3.org/Graphics/SVG/1.1/DTD/svg11.dtd">
<svg version="1.1" id="Layer_1" xmlns="http://www.w3.org/2000/svg" xmlns:xlink="http://www.w3.org/1999/xlink" x="0px" y="0px"
	width="100%" height="100%" viewBox="0 0 359 444" enable-background="new 0 0 359 444" preserveAspectRatio="none" xml:space="preserve">
<g>
	<g>
		<path fill-rule="evenodd" clip-rule="evenodd" fill="#FAEFC2" d="M0.571,362.443c0-92.668,0-185.334,0-278.001
			c0.785-0.755,0.854-1.735,0.951-2.747C3.954,56.274,15.924,36.11,35.677,20.384C52.645,6.875,72.34,1.441,93.763,1.442
			c53.979,0.002,107.956-0.031,161.935,0.035c7.967,0.01,15.908-0.051,23.906,0.771c21.496,2.211,39.652,11.375,54.475,26.509
			c17.4,17.768,25.467,39.77,25.479,64.622c0.039,86.798,0.033,173.597-0.033,260.396c-0.004,5.123-0.352,10.299-1.133,15.359
			c-5.592,36.252-31.92,64.748-67.805,73.504c-4.625,1.129-9.34,1.879-14.014,2.805c-64.334,0-128.666,0-193.001,0
			c-2.023-1.705-4.494-0.738-6.74-1.104c-36.396-5.926-64.689-32.012-73.458-67.889C2.243,371.83,1.495,367.115,0.571,362.443z"/>
		<path fill-rule="evenodd" clip-rule="evenodd" fill="none" d="M276.572,445.443c4.674-0.926,9.389-1.676,14.014-2.805
			c35.885-8.756,62.213-37.252,67.805-73.504c0.781-5.061,1.129-10.236,1.133-15.359c0.066-86.799,0.072-173.598,0.033-260.396
			c-0.012-24.853-8.078-46.854-25.479-64.622C319.256,13.624,301.1,4.46,279.604,2.249c-7.998-0.822-15.939-0.762-23.906-0.771
			C201.719,1.411,147.742,1.444,93.763,1.442C72.34,1.441,52.645,6.875,35.677,20.384C15.924,36.11,3.954,56.274,1.522,81.695
			c-0.098,1.012-0.166,1.992-0.951,2.747c0-27,0.039-54-0.064-81c-0.01-2.5,0.565-3.064,3.064-3.063
			c118,0.071,236.001,0.071,354.001,0c2.498-0.001,3.063,0.563,3.063,3.063c-0.07,146.333-0.07,292.667,0,439.001
			c0,2.498-0.563,3.074-3.063,3.064C330.572,445.404,303.572,445.443,276.572,445.443z"/>
		<path fill-rule="evenodd" clip-rule="evenodd" fill="none" d="M0.571,362.443c0.924,4.672,1.672,9.387,2.802,14.008
			c8.769,35.877,37.062,61.963,73.458,67.889c2.246,0.365,4.717-0.602,6.74,1.104c-26.586,0-53.174-0.053-79.76,0.078
			c-2.766,0.014-3.334-0.553-3.319-3.318C0.624,415.617,0.571,389.029,0.571,362.443z"/>
	</g>
</g>
</svg>
